<?xml version="1.0" encoding="utf-8"?>
<!-- Generator: Adobe Illustrator 24.0.1, SVG Export Plug-In . SVG Version: 6.00 Build 0)  -->
<svg version="1.1"
	 id="svg4152" inkscape:version="0.91 r13725" sodipodi:docname="bateria.svg" xmlns:cc="http://creativecommons.org/ns#" xmlns:dc="http://purl.org/dc/elements/1.1/" xmlns:inkscape="http://www.inkscape.org/namespaces/inkscape" xmlns:rdf="http://www.w3.org/1999/02/22-rdf-syntax-ns#" xmlns:sodipodi="http://sodipodi.sourceforge.net/DTD/sodipodi-0.dtd" xmlns:svg="http://www.w3.org/2000/svg"
	 xmlns="http://www.w3.org/2000/svg" xmlns:xlink="http://www.w3.org/1999/xlink" x="0px" y="0px" viewBox="0 0 550.7 397"
	 style="enable-background:new 0 0 550.7 397;" xml:space="preserve">
<style type="text/css">
	.st0{fill:#FF0000;}
	.st1{fill:none;stroke:#FFFFFF;stroke-width:16;stroke-miterlimit:3.2;}
	.st2{fill:#FFFFFF;stroke:#FFFFFF;stroke-miterlimit:10;}
	.st3{fill:#FFFFFF;}
</style>
<rect y="0" class="st0" width="550.7" height="397"/>
<sodipodi:namedview  bordercolor="#666666" borderopacity="1.0" id="base" inkscape:current-layer="layer1" inkscape:cx="235.54174" inkscape:cy="221.00855" inkscape:document-units="px" inkscape:pageopacity="0.0" inkscape:pageshadow="2" inkscape:window-height="1017" inkscape:window-maximized="1" inkscape:window-width="1920" inkscape:window-x="-8" inkscape:window-y="116" inkscape:zoom="0.35" pagecolor="#ffffff" showgrid="false">
	</sodipodi:namedview>
<path id="rect4700" class="st1" d="M430,112.9v170.3c0,12.6-10.2,22.9-22.9,22.9H137.4c-12.6,0-22.9-10.2-22.9-22.9V112.9
	c0-12.6,10.2-22.9,22.9-22.9h269.7C419.8,90,430,100.2,430,112.9z"/>
<path id="rect4702" class="st2" d="M447,172.7v55.6c0,2.2-2.8,4-6.3,4l0,0c-3.5,0-6.3-1.8-6.3-4v-55.6c0-2.2,2.8-4,6.3-4l0,0
	C444.2,168.6,447,170.4,447,172.7z"/>
<rect id="rect4704" x="143.2" y="112.9" class="st3" width="57.1" height="170.3"/>
<g>
	<path class="st3" d="M116.4,339.6h2.8v5.7h-5.7v-2.8h-2.8v-2.8H99.3v2.8h-2.8v5.7h2.8v2.8h14.2v2.8h2.8v2.8h2.8V368h-2.8v2.8h-2.8
		v2.8h-17v-2.8h-2.8V368h-2.8v-5.7h5.7v2.8h2.8v2.8h11.4v-2.8h2.8v-5.7h-2.8v-2.8H96.5v-2.8h-2.8V351h-2.8v-11.4h2.8v-2.8h2.8v-2.8
		h17v2.8h2.8V339.6z"/>
	<path class="st3" d="M136.2,339.6h-11.4v-5.7h28.4v5.7h-11.4v34.1h-5.7V339.6z"/>
	<path class="st3" d="M187.3,333.9v5.7h-22.7V351h17v5.7h-17V368h22.7v5.7H159v-39.7H187.3z"/>
	<path class="st3" d="M198.7,356.6v17H193v-39.7h22.7v2.8h2.8v2.8h2.8V351h-2.8v2.8h-2.8v2.8H198.7z M198.7,339.6V351h14.2v-2.8h2.8
		v-5.7h-2.8v-2.8H198.7z"/>
	<path class="st3" d="M266.8,373.7V368h5.7v-28.4h-5.7v-5.7h17v5.7h-5.7V368h5.7v5.7H266.8z"/>
	<path class="st3" d="M306.6,339.6h-11.4v-5.7h28.4v5.7h-11.4v34.1h-5.7V339.6z"/>
	<path class="st3" d="M366.2,368h-2.8v-34.1h5.7v31.2h2.8v2.8h11.4v-2.8h2.8v-31.2h5.7V368h-2.8v2.8h-2.8v2.8h-17v-2.8h-2.8V368z"/>
	<path class="st3" d="M403.1,356.6v17h-5.7v-39.7h22.7v2.8h2.8v2.8h2.8V351H423v2.8h-2.8v2.8H403.1z M403.1,339.6V351h14.2v-2.8h2.8
		v-5.7h-2.8v-2.8H403.1z"/>
	<path class="st3" d="M445.7,362.3H440v-28.4h5.7V362.3z M445.7,368v5.7H440V368H445.7z"/>
</g>
</svg>
