<?xml version="1.0" encoding="utf-8"?>
<!-- Generator: Adobe Illustrator 24.0.1, SVG Export Plug-In . SVG Version: 6.00 Build 0)  -->
<svg version="1.1"
	 id="svg4152" inkscape:version="0.91 r13725" sodipodi:docname="bateria.svg" xmlns:cc="http://creativecommons.org/ns#" xmlns:dc="http://purl.org/dc/elements/1.1/" xmlns:inkscape="http://www.inkscape.org/namespaces/inkscape" xmlns:rdf="http://www.w3.org/1999/02/22-rdf-syntax-ns#" xmlns:sodipodi="http://sodipodi.sourceforge.net/DTD/sodipodi-0.dtd" xmlns:svg="http://www.w3.org/2000/svg"
	 xmlns="http://www.w3.org/2000/svg" xmlns:xlink="http://www.w3.org/1999/xlink" x="0px" y="0px" viewBox="0 0 550.7 397"
	 style="enable-background:new 0 0 550.7 397;" xml:space="preserve">
<style type="text/css">
	.st0{fill:#FF0000;}
	.st1{fill:none;stroke:#FFFFFF;stroke-width:16;stroke-miterlimit:3.2;}
	.st2{fill:#FFFFFF;stroke:#FFFFFF;stroke-miterlimit:10;}
	.st3{fill:#FFFFFF;}
</style>
<rect class="st0" width="550.7" height="397"/>
<sodipodi:namedview  bordercolor="#666666" borderopacity="1.0" id="base" inkscape:current-layer="layer1" inkscape:cx="235.54174" inkscape:cy="221.00855" inkscape:document-units="px" inkscape:pageopacity="0.0" inkscape:pageshadow="2" inkscape:window-height="1017" inkscape:window-maximized="1" inkscape:window-width="1920" inkscape:window-x="-8" inkscape:window-y="116" inkscape:zoom="0.35" pagecolor="#ffffff" showgrid="false">
	</sodipodi:namedview>
<path id="rect4700" class="st1" d="M430,112.9v170.3c0,12.6-10.2,22.9-22.9,22.9H137.4c-12.6,0-22.9-10.2-22.9-22.9V112.9
	c0-12.6,10.2-22.9,22.9-22.9h269.7C419.8,90,430,100.2,430,112.9z"/>
<path id="rect4702" class="st2" d="M447,172.7v55.6c0,2.2-2.8,4-6.3,4l0,0c-3.5,0-6.3-1.8-6.3-4v-55.6c0-2.2,2.8-4,6.3-4l0,0
	C444.2,168.6,447,170.4,447,172.7z"/>
<rect id="rect4704" x="143.2" y="112.9" class="st3" width="57.1" height="170.3"/>
</svg>
